<?xml version="1.0" encoding="utf-8"?>
<svg version="1.1" id="Art" xmlns="http://www.w3.org/2000/svg" xmlns:xlink="http://www.w3.org/1999/xlink" x="0px" y="0px"
     viewBox="0 0 141.73 141.73" style="enable-background:new 0 0 141.73 141.73;" xml:space="preserve">
<g>
	<path d="M53.79,44.97h-9.22L33.31,66.31L21.98,44.97h-9.29l16.33,29.37v18.24h8.43V74.48L53.79,44.97L53.79,44.97z"/>
  <path d="M61.41,56.83c-9.48,0-13.96,5.07-14.36,11.92h8.17c0.2-3.03,1.84-5.07,6.13-5.07c4.94,0,6.32,2.37,6.32,5.99v2.24h-7.44c-4.81,0-7.84,0.59-10.08,2.04c-2.9,1.84-4.48,4.54-4.48,8.43c0,5.01,3.03,10.74,12.51,10.74c4.61,0,7.9-1.51,9.88-4.02v3.43h7.77V69.8C75.83,62.36,71.75,56.83,61.41,56.83z M67.67,81.39c0,3.69-3.29,5.4-7.71,5.4c-4.87,0-6.12-2.11-6.12-4.61c0-1.38,0.53-2.57,1.65-3.29c0.92-0.59,2.37-0.79,5.14-0.79h7.05V81.39z"/>
  <path d="M122.5,61.97c-2.63-3.16-6.65-5.14-12.18-5.14c-5.99,0-9.95,2.17-12.45,5.2c-3.16,3.89-3.89,9.29-3.89,13.17c0,3.75,0.66,8.36,3.23,11.99c2.57,3.62,6.78,5.93,13.5,5.93c4.48,0,8.04-1.05,10.54-2.9c2.7-1.98,4.41-4.87,4.68-8.1h-8.17c-0.2,1.12-0.86,2.24-1.84,2.96c-1.19,0.86-2.83,1.25-5.2,1.25c-3.23,0-5.4-0.99-6.72-2.83c-1.05-1.45-1.51-3.75-1.51-5.8h23.78C126.71,71.25,125.59,65.72,122.5,61.97z M102.54,71.65c0.07-1.98,0.72-4.41,2.11-5.93c1.32-1.45,3.23-2.24,5.73-2.24c2.44,0,4.35,0.79,5.6,2.17c1.38,1.51,1.84,4.08,1.84,5.99H102.54z"/>
  <path d="M93.25,92.79v-7.31c-3.82,0.2-4.81-1.38-4.81-4.54V44.97h-7.97v36.75C80.47,88.84,83.24,93.32,93.25,92.79L93.25,92.79z"/>
</g>
</svg>
