<svg viewBox="0 0 48 48" xmlns="http://www.w3.org/2000/svg"><path d="M33.423 19.011v-5.27a8.847 8.847 0 0 0-17.69-.265l-.004.265v5.27h17.694zm-9.6 7.907a3.765 3.765 0 0 0-2.066 6.911l.184.114v5.086c0 .954.735 1.736 1.67 1.812l.148.006h.129c.954 0 1.736-.735 1.812-1.669l.006-.15.001-5.085a3.765 3.765 0 0 0-1.883-7.025zM10.836 13.74C10.835 6.152 16.987 0 24.576 0c7.483 0 13.568 5.98 13.738 13.421l.004.32-.001 5.27h.694a3.636 3.636 0 0 1 3.636 3.637v21.716A3.636 3.636 0 0 1 39.011 48H8.636A3.636 3.636 0 0 1 5 44.364V22.648a3.636 3.636 0 0 1 3.636-3.636h2.2v-5.27z" fill="#313132" fill-rule="evenodd"/></svg>