<svg height="960" viewBox="0 0 960 960" width="960" xmlns="http://www.w3.org/2000/svg"><path d="m510.02904-.09697315.554825.08720084.082286.00156881 1.527773.04189184c110.752348 3.47095699 198.737142 94.25637486 198.737142 205.06309866v539.277394c0 107.720418-79.959754 198.701294-186.788331 212.533995l-8.065268 1.044331c-25.107283 3.251017-50.22322 1.257744-74.051491-5.673256l-1.128111-.332023-.068729-.01622c-.475596-.119775-.951101-.248665-1.426337-.386785l-.712628-.214117-10.08346-3.129173c-13.949364-4.350911-24.927746-7.875519-33.022824-10.605282l-.553341-.186889c-5.948835-2.01232-11.766408-4.114425-17.452635-6.306935l-.864046-.335599-.626262-.199893c-66.543987-21.611826-115.794132-79.326903-125.621727-149.819218l-.288506-2.161894c-.985345-7.728158-1.479505-15.511035-1.479505-23.301756v-554.194032c0-102.2466547 77.332802-187.4584868 178.062036-198.10802696l1.282964-.12583294 1.418-.139-1.411.138-.007.001.007-.001.260326-.03587429c.855703-.11130133 1.71629-.19507672 2.580478-.25090805l.648795-.03662745.166401-.00793762 1.02104-.08283045c4.389963-.33197599 8.800478-.52001556 13.226398-.56298239l.948562-.00418716 55.454596-2.37343718c2.612473-.11177755 5.178006.02984267 7.672579.40323634zm-10.490175 39.75354825-28.622439 1.222436c-67.82911 9.7193935-119.965597 68.0597809-119.965597 138.5772979v600.247021c0 6.011275.387165 12.016311 1.159091 17.977818 6.64975 51.355363 40.338645 92.588094 84.901059 111.239049 1.146232.358293 2.314914.723555 3.506117 1.0951l10.028285 3.112009.006876-.053946c18.885129 5.896402 39.311503 7.913804 60.215703 5.232609l8.238255-1.066624c85.589658-11.082579 149.974365-83.050714 151.881342-168.942857-.73182 8.996262-4.839745 17.266601-11.356615 23.265919l-.203942.183593-.051514.374239c-10.62336 72.204594-68.880918 126.756848-138.615138 127.862641l-2.160348.01712c-75.66505 0-137.329063-62.585853-142.191142-141.449282-.108391-.812237-.18913-1.63368-.241415-2.4634l-.026526-.470031c-.027274-.546945-.040917-1.094483-.040917-1.642106 0-.620075.014846-1.236408.044225-1.848613-.030809-1.204405-.044225-2.413847-.044225-3.626568 0-83.5296 63.647194-151.5 142.5-151.5 68.040748 0 125.808666 50.952799 139.463778 120.245073l.378865 1.993898c7.21546 5.671452 11.967447 14.255505 12.588647 23.904312l-.000224-538.046496c0-89.200151-70.825957-162.2835612-159.981099-165.082445l-.022102-.0007669-1.606424-.0418076c-1.079796-.0225562-2.159814-.0338357-3.239875-.0338357-.66263 0-1.32429.0041545-1.984955.0124389l-.009746-.1517956zm-103.189514 10.7493613-.342455.1165568c-62.447131 21.5264754-107.309031 80.8076798-107.309031 150.5669418v554.194032c0 6.09927.386872 12.192398 1.158288 18.242688 6.441742 50.523243 38.290406 91.591418 81.076918 112.007496-20.427643-23.119879-34.397545-52.384519-38.657567-85.284243-.882201-6.813151-1.324675-13.676049-1.324675-20.546078v-600.247021c0-52.971462 25.741848-99.9305935 65.398522-129.0503726zm240.937273 730.3696506-.067799.003441-201.759588 10.03779c-.68309.033985-1.362371.047012-2.037222.039645l-.022133.004098c-.839975.14176-1.695226.175707-2.544921.100575l-.424288-.046663-27.735747-3.650947c-.469529-.061805-.924178-.153506-1.362899-.272616 15.346681 53.914996 62.095412 93.00909 117.167973 93.00909 56.727051 0 105.295785-41.705183 118.786624-99.224413zm-.067799-48.553871-201.759588 10.03779c-8.259656.410928-14.745562 7.227538-14.745562 15.497411 0 .217092.005396.434151.016183.650975.324085 6.51411 5.353057 11.67959 11.634527 12.371291.160087-.004849.320108-.004889.480152-.001082l.394898.017207c.49801.031571 1.001242.035011 1.508691.009742l201.509062-10.034329c4.294985-.213873 8.110223-2.160045 10.782985-5.141964 2.448539-2.748595 3.930419-6.369496 3.930419-10.322433 0-.217093-.005397-.434152-.016184-.650976-.053024-1.065789-.231994-2.095477-.521788-3.075376-.976682-3.212785-3.157115-5.940382-6.125759-7.615328-.248468-.140189-.489674-.290262-.723196-.449609-1.915958-.931113-4.086901-1.40665-6.36484-1.293319zm-231.314452 7.041105-.140162.046545c-5.411597 1.841331-9.202947 6.838756-9.70698 13.206265.036132 1.339436.092126 2.673013.166468 4.001203.643919 3.678089 2.581918 6.690948 5.298072 8.526593-.411223-1.825088-.671098-3.709943-.767207-5.641739-.027255-.547834-.040889-1.09626-.040889-1.644771 0-6.761288 1.894072-13.09818 5.190698-18.494096zm112.595627-122.262821c-58.603196 0-107.78109 44.267319-119.729576 103.553722 3.111279-1.113176 6.449147-1.792765 9.957582-1.966915l212.720387-10.558901c.943089-.046812 1.883862-.034623 2.817782.035759l.020825.002335.122029-.015462c.710575-.071711 1.426796-.067094 2.136387.013772l.424861.057669c2.784098.438879 5.674427 1.033376 8.673046 1.781967-15.488832-54.356495-62.635188-92.903946-117.143323-92.903946zm-.088697-555.8932807c78.902461 0 142.598814 67.8829687 142.598814 151.3142297 0 83.43126-63.696353 151.314229-142.598814 151.314229-78.90246 0-142.598814-67.882969-142.598814-151.314229 0-83.431261 63.696354-151.3142297 142.598814-151.3142297zm0 20c-67.562145 0-122.598814 58.6541027-122.598814 131.3142297 0 72.660126 55.036669 131.314229 122.598814 131.314229s122.598814-58.654103 122.598814-131.314229c0-72.660127-55.036669-131.3142297-122.598814-131.3142297z" transform="matrix(1 0 0 -1 0 958.935854)"/></svg>